<?xml version="1.0" encoding="utf-8"?>
<!-- Generator: Adobe Illustrator 25.4.0, SVG Export Plug-In . SVG Version: 6.00 Build 0)  -->
<svg version="1.1" id="Layer_1" xmlns="http://www.w3.org/2000/svg" xmlns:xlink="http://www.w3.org/1999/xlink" x="0px" y="0px"
	 viewBox="0 0 1920 1080" style="enable-background:new 0 0 1920 1080;" xml:space="preserve">
<style type="text/css">
	.st0{fill:none;stroke:#000000;stroke-width:4;stroke-miterlimit:10;}
	.st1{fill:#B58884;}
	.st2{fill:#CBAF7D;}
	.st3{fill:#92A2A3;}
	.st4{fill:#6F8254;}
	.st5{fill:#C1ABA2;}
	.st6{fill:#4B6268;}
	.st7{fill:#CFC0B9;}
	.st8{fill:#D5C8B8;}
	.st9{fill:#BE8479;}
	.st10{fill:#A55B5A;}
	.st11{fill:#576F72;}
	.st12{fill:#C9AE70;}
	.st13{fill:#967A7C;}
	.st14{fill:#E1C6BA;}
	.st15{fill:#7B8189;}
	.st16{fill:#E2DCCD;}
	.st17{fill:#D9D6CF;}
	.st18{fill:#B16159;}
	.st19{fill:#BF737B;}
	.st20{fill:#32BBD7;}
	.st21{fill:#E7C47C;}
	.st22{fill:#D6D7D5;}
	.st23{fill:#839E64;}
	.st24{fill:#BA6234;}
	.st25{fill:#D99E86;}
	.st26{fill:#E2C0A3;}
	.st27{fill:#8A9D95;}
	.st28{fill:#CDCEC0;}
	.st29{fill:#AA645B;}
	.st30{fill:#533B39;}
	.st31{fill:#AD9A70;}
	.st32{fill:#9C725A;}
	.st33{fill:#60685A;}
	.st34{fill:#AD9E7E;}
	.st35{fill:#9D846F;}
	.st36{fill:#6A756C;}
</style>
<g>
	<g>
		<path class="st0" d="M-6304.68,3561.75c-1.9,0-3.44-1.54-3.44-3.44"/>
	</g>
	<g>
		<path class="st0" d="M-6299.13,3556.18c0,3.08-2.49,5.57-5.57,5.57"/>
	</g>
	<g>
		<path class="st0" d="M-6308.15,3547.19c4.98,0,9.02,4.03,9.02,9.02"/>
	</g>
	<g>
		<path class="st0" d="M-6322.69,3561.78c0-8.06,6.53-14.59,14.59-14.59"/>
	</g>
	<g>
		<path class="st0" d="M-6299.08,3585.31c-13.05,0-23.61-10.56-23.61-23.61"/>
	</g>
	<g>
		<path class="st0" d="M-6261,3547.12c0,21.11-17.08,38.2-38.2,38.2"/>
	</g>
	<g>
		<path class="st0" d="M-6322.81,3485.5c34.16,0,61.8,27.64,61.8,61.8"/>
	</g>
	<g>
		<path class="st0" d="M-6422.5,3585.5c0-55.27,44.73-100,100-100"/>
	</g>
</g>
<path class="st0" d="M-6001.95,3739.47L-6001.95,3739.47c-42.11,0-76.24-34.13-76.24-76.24v-510.06c0-42.11,34.13-76.24,76.24-76.24
	h0c42.11,0,76.24,34.13,76.24,76.24v510.06C-5925.71,3705.33-5959.84,3739.47-6001.95,3739.47z"/>
<path class="st0" d="M-5415.39,3438.16L-5415.39,3438.16c-16.5,0-29.87-13.38-29.87-29.87l0,0c0-16.5,13.38-29.87,29.87-29.87h0
	c16.5,0,29.87,13.38,29.87,29.87l0,0C-5385.52,3424.78-5398.89,3438.16-5415.39,3438.16z"/>
<path class="st0" d="M-5415.39,3456.62L-5415.39,3456.62c-26.7,0-48.34-21.64-48.34-48.34l0,0c0-26.7,21.64-48.34,48.34-48.34h0
	c26.7,0,48.34,21.64,48.34,48.34l0,0C-5367.06,3434.98-5388.7,3456.62-5415.39,3456.62z"/>
<path class="st0" d="M-5414.39,3486.49L-5414.39,3486.49c-43.19,0-78.21-35.01-78.21-78.21l0,0c0-43.19,35.01-78.21,78.21-78.21h0
	c43.19,0,78.21,35.01,78.21,78.21l0,0C-5336.18,3451.48-5371.2,3486.49-5414.39,3486.49z"/>
<path class="st0" d="M-5414.72,3534.66L-5414.72,3534.66c-69.89,0-126.54-56.65-126.54-126.54v0c0-69.89,56.65-126.54,126.54-126.54
	l0,0c69.89,0,126.54,56.65,126.54,126.54v0C-5288.18,3478-5344.83,3534.66-5414.72,3534.66z"/>
<path class="st0" d="M-5415.39,3613.03L-5415.39,3613.03c-113.08,0-204.74-91.67-204.74-204.74v0
	c0-113.08,91.67-204.74,204.74-204.74h0c113.08,0,204.74,91.67,204.74,204.74v0C-5210.65,3521.36-5302.32,3613.03-5415.39,3613.03z"
	/>
<rect x="-5723" y="3837.92" class="st0" width="662.55" height="662.55"/>
<rect x="-5420.27" y="4139.41" class="st0" width="59.75" height="59.75"/>
<rect x="-5439.73" y="4120.95" class="st0" width="96.67" height="96.67"/>
<rect x="-5468.6" y="4091.08" class="st0" width="156.42" height="156.42"/>
<rect x="-5517.26" y="4042.58" class="st0" width="253.08" height="253.08"/>
<rect x="-5596.13" y="3964.54" class="st0" width="409.48" height="409.48"/>
<g>
	<g>
		<path class="st0" d="M-5230.33,4773.15c0,0.19-0.16,0.35-0.35,0.35"/>
	</g>
	<g>
		<path class="st0" d="M-5230.9,4772.59c0.31,0,0.57,0.25,0.57,0.57"/>
	</g>
	<g>
		<path class="st0" d="M-5231.8,4773.51c0-0.51,0.41-0.92,0.92-0.92"/>
	</g>
	<g>
		<path class="st0" d="M-5230.32,4774.97c-0.82,0-1.48-0.66-1.48-1.48"/>
	</g>
	<g>
		<path class="st0" d="M-5227.95,4772.57c0,1.33-1.07,2.4-2.4,2.4"/>
	</g>
	<g>
		<path class="st0" d="M-5231.84,4768.75c2.14,0,3.88,1.73,3.88,3.88"/>
	</g>
	<g>
		<path class="st0" d="M-5238.02,4775.04c0-3.47,2.81-6.28,6.28-6.28"/>
	</g>
	<g>
		<path class="st0" d="M-5227.84,4785.04c-5.61,0-10.15-4.54-10.15-10.15"/>
	</g>
	<g>
		<path class="st0" d="M-5211.66,4768.56c0,9.08-7.35,16.43-16.43,16.43"/>
	</g>
	<g>
		<path class="st0" d="M-5238.32,4742.38c14.69,0,26.58,11.89,26.58,26.58"/>
	</g>
	<g>
		<path class="st0" d="M-5280.68,4785.52c0-23.77,19.24-43.01,43.01-43.01"/>
	</g>
	<g>
		<path class="st0" d="M-5210.89,4854.05c-38.47,0-69.59-31.13-69.59-69.59"/>
	</g>
	<g>
		<path class="st0" d="M-5100,4741.13c0,62.24-50.36,112.6-112.6,112.6"/>
	</g>
	<g>
		<path class="st0" d="M-5282.7,4561.72c100.7,0,182.19,81.49,182.19,182.19"/>
	</g>
	<g>
		<path class="st0" d="M-5573,4857.33c0-162.93,131.84-294.78,294.78-294.78"/>
	</g>
</g>
<polygon class="st0" points="-6455,3783 -6844.71,4458 -6065.29,4458 "/>
<polygon class="st0" points="-6455,4133.26 -6511.86,4231.74 -6398.14,4231.74 "/>
<polygon class="st0" points="-6455,4092.82 -6547,4252.18 -6363,4252.18 "/>
<polygon class="st0" points="-6455,4035.58 -6603.86,4293.42 -6306.14,4293.42 "/>
<polygon class="st0" points="-6455,3939.91 -6695.86,4357.09 -6214.14,4357.09 "/>
<rect x="5852.57" y="-3841.51" class="st1" width="2183.15" height="1145.82"/>
<rect x="5846.05" y="-7084.08" class="st2" width="2183.15" height="1147.43"/>
<rect x="5831.75" y="1020.35" class="st3" width="2185.5" height="1147.41"/>
<rect x="5837.32" y="-5462.39" class="st4" width="2187.51" height="1145.82"/>
<rect x="5846.02" y="-2220.62" class="st5" width="2183.15" height="1145.82"/>
<rect x="5857.91" y="-600.54" class="st6" width="2185.5" height="1147.41"/>
<rect x="2673" y="1021.35" class="st7" width="1959.17" height="1147.41"/>
<rect x="2679.94" y="-5462.19" class="st8" width="1957.06" height="1147.43"/>
<rect x="2685.79" y="-2219.62" class="st9" width="1957.06" height="1145.82"/>
<rect x="2691.65" y="-3840.51" class="st10" width="1957.06" height="1145.82"/>
<rect x="2696.44" y="-599.33" class="st11" width="1959.17" height="1146.99"/>
<rect x="2685.81" y="-7083.08" class="st12" width="1957.06" height="1147.43"/>
<rect x="-536.88" y="-2220.62" class="st13" width="2160.92" height="1145.82"/>
<rect x="-543.33" y="-5463.19" class="st14" width="2160.92" height="1147.43"/>
<rect x="-530.4" y="-3840.12" class="st15" width="2160.92" height="1143.04"/>
<rect x="-551" y="1020.35" class="st16" width="2163.25" height="1147.41"/>
<rect x="-523.95" y="-610.45" class="st17" width="2160.92" height="1167.24"/>
<rect x="-536.85" y="-7084.08" class="st18" width="2160.92" height="1147.43"/>
<rect x="-3784.86" y="-3840.51" class="st19" width="2053.82" height="1145.82"/>
<rect x="-3804.44" y="1021.35" class="st20" width="2056.03" height="1147.41"/>
<rect x="-3791" y="-7083.08" class="st21" width="2053.82" height="1147.43"/>
<rect x="-3778.73" y="-598.74" class="st22" width="2053.82" height="1145.82"/>
<rect x="-3797.16" y="-5462.19" class="st23" width="2053.82" height="1147.43"/>
<rect x="-3791.02" y="-2219.62" class="st24" width="2053.82" height="1145.82"/>
<rect x="-6469.48" y="-2222.73" class="st25" width="1793.64" height="1145.82"/>
<rect x="-6464.1" y="-3843.61" class="st26" width="1793.64" height="1145.82"/>
<rect x="-6458.74" y="-601.84" class="st27" width="1793.64" height="1145.82"/>
<rect x="-6481.2" y="1018.24" class="st28" width="1795.57" height="1147.41"/>
<rect x="-6469.46" y="-7083.97" class="st29" width="1793.64" height="1143.01"/>
<rect x="-6474.84" y="-5465.3" class="st30" width="1793.64" height="1147.43"/>
<g>
	<rect x="-6470.25" y="5214.73" class="st31" width="810.23" height="457.48"/>
	<rect x="-6470.25" y="5748.46" class="st32" width="810.23" height="457.48"/>
	<rect x="-6470.25" y="6282.19" class="st33" width="810.23" height="457.48"/>
	<rect x="-6470.25" y="6892.16" class="st34" width="810.23" height="457.48"/>
	<rect x="-6470.25" y="7502.13" class="st35" width="810.23" height="457.48"/>
	<rect x="-6470.25" y="8137.52" class="st36" width="810.23" height="457.48"/>
</g>
</svg>
